<svg xmlns="http://www.w3.org/2000/svg" width="800.468" height="557.805" viewBox="0 0 800.468 557.805">
  <g id="hero-img" transform="translate(-786.532 -231.293)">
    <rect id="Rectangle_3" data-name="Rectangle 3" width="188.708" height="188.708" rx="20" transform="matrix(-0.719, -0.695, 0.695, -0.719, 922.277, 789.098)" fill="#684ec1"/>
    <rect id="Rectangle_13" data-name="Rectangle 13" width="188.708" height="188.708" rx="20" transform="matrix(-0.719, -0.695, 0.695, -0.719, 1455.912, 785.865)" fill="#684ec1"/>
    <rect id="Rectangle_7" data-name="Rectangle 7" width="188.708" height="188.708" rx="20" transform="matrix(-0.719, -0.695, 0.695, -0.719, 1189.079, 785.865)" fill="#fff"/>
    <rect id="Rectangle_14" data-name="Rectangle 14" width="188.708" height="188.708" rx="20" transform="matrix(-0.719, -0.695, 0.695, -0.719, 1189.127, 498.126)" fill="#5839c4"/>
    <ellipse id="Ellipse_2" data-name="Ellipse 2" cx="93.703" cy="95.005" rx="93.703" ry="95.005" transform="matrix(-0.719, -0.695, 0.695, -0.719, 1054.742, 642.96)" fill="#ff647e"/>
    <ellipse id="Ellipse_3" data-name="Ellipse 3" cx="93.703" cy="95.005" rx="93.703" ry="95.005" transform="matrix(-0.719, -0.695, 0.695, -0.719, 1321.624, 642.96)" fill="#81ffc8"/>
  </g>
</svg>
